<svg width="110" height="33" viewBox="0 0 110 33" fill="none" xmlns="http://www.w3.org/2000/svg">
<path d="M30.645 7.21515C30.9718 7.21515 31.1643 7.40593 31.1643 7.72969V32.4855C31.1643 32.8092 30.9718 33 30.645 33H27.2608C26.9048 33 26.7415 32.8092 26.7415 32.4855V7.72969C26.7415 7.40593 26.9048 7.21515 27.2608 7.21515H30.645Z" fill="black"/>
<path d="M41.638 11.8576C41.638 8.82815 43.266 7.21515 46.3235 7.21515H49.9645C53.022 7.21515 54.6499 8.82815 54.6499 11.8576V28.3576C54.6499 31.387 53.022 33 49.9645 33H46.3235C43.266 33 41.638 31.387 41.638 28.3576V11.8576ZM49.1534 28.8432C49.9995 28.8432 50.4546 28.427 50.4546 27.554V12.6612C50.4546 11.8229 49.9995 11.3719 49.1534 11.3719H47.2687C46.4227 11.3719 45.9675 11.8229 45.9675 12.6612V27.554C45.9675 28.427 46.4227 28.8432 47.2687 28.8432H49.1534Z" fill="black"/>
<path d="M85.3591 7.21515C85.7792 7.21515 86.0068 7.47531 85.9776 7.89157L83.1827 32.3872C83.1477 32.8034 82.9201 33 82.5 33H79.3141C78.9232 33 78.6956 32.8092 78.5964 32.4219L75.2122 17.8529L71.7988 32.4508C71.6996 32.8034 71.472 33 71.0811 33H67.831C67.4109 33 67.1775 32.8092 67.1483 32.3872L64.4818 7.89157C64.4468 7.47531 64.6743 7.21515 65.1003 7.21515H68.1928C68.5837 7.21515 68.8463 7.44062 68.8755 7.82797L70.1416 22.9115H70.305L73.5201 7.79907C73.6193 7.41172 73.8468 7.22093 74.2378 7.22093H76.1925C76.5834 7.22093 76.811 7.41172 76.9101 7.79907L80.096 22.9173H80.2594L81.5956 7.83375C81.6306 7.4464 81.8873 7.22093 82.2783 7.22093H85.3591V7.21515Z" fill="black"/>
<path d="M106.085 33C105.793 33 105.63 32.8381 105.565 32.5491L104.655 27.843H98.867L97.9917 32.5491C97.9275 32.8381 97.7642 33 97.4724 33H93.989C93.633 33 93.4697 32.8092 93.5688 32.4508L98.9662 7.6661C99.0303 7.34234 99.2287 7.21515 99.5205 7.21515H104.043C104.334 7.21515 104.533 7.34234 104.597 7.6661L109.994 32.4508C110.058 32.8034 109.93 33 109.539 33H106.085ZM101.755 12.8578L99.6722 24.1083H103.838L101.755 12.8578Z" fill="black"/>
<path d="M17.2364 33H16.0577V20.6915C16.0577 16.6792 12.7201 13.4128 8.61818 13.4128C4.51623 13.4128 1.17865 16.6792 1.17865 20.6915V33H0V20.6915C0 16.0317 3.86856 12.2449 8.61818 12.2449C13.3678 12.2449 17.2364 16.0317 17.2364 20.6915V33Z" fill="#48B4E3"/>
<path d="M12.6209 33H11.4423V20.7551C11.4423 19.2057 10.1703 17.9396 8.60068 17.9396C7.03692 17.9396 5.75907 19.1999 5.75907 20.7551V33H4.58041V20.7551C4.58041 18.5582 6.38341 16.7717 8.60068 16.7717C10.8179 16.7717 12.6209 18.5582 12.6209 20.7551V33Z" fill="#48B4E3"/>
<path d="M14.9257 33H13.7471V20.7898C13.7471 17.9685 11.4306 15.6733 8.58316 15.6733C5.73572 15.6733 3.41926 17.9685 3.41926 20.7898V33H2.2406V20.7898C2.2406 17.3267 5.08804 14.5054 8.58316 14.5054C12.0783 14.5054 14.9257 17.3267 14.9257 20.7898V33Z" fill="#48B4E3"/>
<path d="M10.3162 33H9.1375V20.7782C9.1375 20.466 8.88077 20.2174 8.57152 20.2174C8.25643 20.2174 8.00553 20.4718 8.00553 20.7782V33H6.82687V20.7782C6.82687 19.8243 7.60875 19.0496 8.57152 19.0496C9.53428 19.0496 10.3162 19.8243 10.3162 20.7782V33Z" fill="#48B4E3"/>
<path d="M8.57152 6.38263C7.60875 6.38263 6.82687 7.15733 6.82687 8.11126V11.4413C7.21198 11.3604 7.60292 11.3083 8.00553 11.2794V8.11126C8.00553 7.79906 8.26227 7.55046 8.57152 7.55046C8.8866 7.55046 9.1375 7.80484 9.1375 8.11126V11.2737C9.54011 11.2968 9.93105 11.3488 10.3162 11.424V8.11126C10.3162 7.15733 9.53428 6.38263 8.57152 6.38263Z" fill="#48B4E3"/>
<path d="M9.16083 4.11633V2.21426H10.0652V1.04643H9.16083V0H7.98218V1.04643H7.07776V2.21426H7.98218V4.11633C6.04498 4.39961 4.55124 6.05886 4.55124 8.05343V12.2565C4.93051 12.0599 5.32145 11.8865 5.72989 11.7419V8.05343C5.72989 6.50403 7.00191 5.23791 8.5715 5.23791C10.1353 5.23791 11.4131 6.49825 11.4131 8.05343V11.713C11.8216 11.8518 12.2125 12.0137 12.5918 12.2102V8.05921C12.5859 6.05886 11.098 4.39961 9.16083 4.11633Z" fill="#48B4E3"/>
</svg>
