<svg width="591" height="91" viewBox="0 0 591 91" fill="none" xmlns="http://www.w3.org/2000/svg">
<path d="M6 47.3356C53.0845 43.7215 100.208 40.9964 147.344 38.967C194.481 37.073 241.63 35.8167 288.793 35.0243C335.942 34.2126 383.104 34.058 430.254 34C477.403 34 524.565 34.0966 571.715 34.4252H571.728C572.429 34.4252 573 35.2756 573 36.3386C573 37.3629 572.442 38.1939 571.767 38.2326L486.27 41.982L443.521 43.8567L432.837 44.3206L422.153 44.5718L400.772 45.0743C372.265 45.6928 343.757 46.5432 315.236 46.6592C286.728 46.8331 258.221 46.7751 229.765 48.5725L229.726 46.3886C243.798 46.4659 257.857 46.8138 271.903 47.4516C285.963 48.07 300.009 48.8431 314.055 49.6355C342.147 51.201 370.252 52.7665 398.358 52.9791C370.239 53.1723 342.121 51.9934 314.016 50.8338C299.97 50.254 285.911 49.6548 271.864 49.249C257.818 48.8624 243.759 48.5145 229.713 48.5919C229.311 48.5919 228.986 48.1087 228.973 47.5095C228.973 46.9297 229.285 46.4466 229.674 46.4079C258.169 44.3786 286.702 44.224 315.197 43.8181C329.451 43.6442 343.692 43.2963 357.946 42.8711L400.694 41.7501L422.075 41.1896L432.759 40.9191L443.443 40.4359L486.179 38.4452L571.65 34.4638L571.689 38.2519L430.254 37.5562C383.104 37.4402 335.955 37.6528 288.806 38.078C241.656 38.5032 194.507 39.3729 147.37 40.9191C100.247 42.3299 53.1105 44.3592 6 47.3356Z" fill="#D21F3F"/>
<path d="M0.406797 31V2.02H20.7918V6.745H6.4818V14.17H19.1268V18.85H6.4818V31H0.406797ZM24.9631 5.755V0.984998H31.5781V5.755H24.9631ZM25.4581 31V14.17H22.2631L22.8031 9.67H31.5331V31H25.4581ZM36.7056 31V9.67H42.3306L42.5556 11.695C43.4256 11.035 44.5206 10.465 45.8406 9.985C47.1906 9.475 48.6006 9.22 50.0706 9.22C52.8906 9.22 54.9456 9.88 56.2356 11.2C57.5256 12.52 58.1706 14.56 58.1706 17.32V31H52.0956V17.635C52.0956 16.195 51.7956 15.175 51.1956 14.575C50.6256 13.975 49.5456 13.675 47.9556 13.675C47.0256 13.675 46.0806 13.885 45.1206 14.305C44.1906 14.725 43.4106 15.25 42.7806 15.88V31H36.7056ZM71.3236 31.45C69.4336 31.45 67.7386 31.12 66.2386 30.46C64.7686 29.77 63.6136 28.66 62.7736 27.13C61.9336 25.57 61.5136 23.515 61.5136 20.965C61.5136 18.415 61.9786 16.27 62.9086 14.53C63.8386 12.79 65.0836 11.47 66.6436 10.57C68.2036 9.67 69.9136 9.22 71.7736 9.22C74.1136 9.22 76.1086 9.76 77.7586 10.84V0.669999H83.8336V31H78.6136L78.2536 29.02C77.3236 29.83 76.3036 30.445 75.1936 30.865C74.1136 31.255 72.8236 31.45 71.3236 31.45ZM72.9886 26.995C74.8786 26.995 76.4686 26.35 77.7586 25.06V15.34C76.4986 14.23 75.0286 13.675 73.3486 13.675C69.5686 13.675 67.6786 16.105 67.6786 20.965C67.6786 23.245 68.1436 24.82 69.0736 25.69C70.0036 26.56 71.3086 26.995 72.9886 26.995ZM105.549 31.45C104.199 31.45 102.939 31.21 101.769 30.73C100.629 30.22 99.6993 29.485 98.9793 28.525C98.2893 27.535 97.9443 26.305 97.9443 24.835C97.9443 22.735 98.6793 21.055 100.149 19.795C101.649 18.535 103.854 17.905 106.764 17.905H113.064V17.32C113.064 16 112.689 15.07 111.939 14.53C111.219 13.99 109.749 13.72 107.529 13.72C105.099 13.72 102.759 14.095 100.509 14.845V10.57C101.499 10.18 102.699 9.865 104.109 9.625C105.549 9.355 107.109 9.22 108.789 9.22C111.999 9.22 114.474 9.88 116.214 11.2C117.984 12.49 118.869 14.575 118.869 17.455V31H113.604L113.289 29.065C112.449 29.815 111.414 30.4 110.184 30.82C108.954 31.24 107.409 31.45 105.549 31.45ZM107.214 27.445C108.564 27.445 109.734 27.22 110.724 26.77C111.714 26.32 112.494 25.75 113.064 25.06V21.685H106.899C104.529 21.685 103.344 22.66 103.344 24.61C103.344 26.5 104.634 27.445 107.214 27.445ZM123.761 31V9.67H129.386L129.611 11.695C130.481 11.035 131.576 10.465 132.896 9.985C134.246 9.475 135.656 9.22 137.126 9.22C139.946 9.22 142.001 9.88 143.291 11.2C144.581 12.52 145.226 14.56 145.226 17.32V31H139.151V17.635C139.151 16.195 138.851 15.175 138.251 14.575C137.681 13.975 136.601 13.675 135.011 13.675C134.081 13.675 133.136 13.885 132.176 14.305C131.246 14.725 130.466 15.25 129.836 15.88V31H123.761ZM160.06 31V2.02H166.135V31H160.06ZM184.451 31.45C175.061 31.45 170.366 26.515 170.366 16.645C170.366 11.335 171.551 7.495 173.921 5.125C176.291 2.755 179.801 1.57 184.451 1.57C189.101 1.57 192.611 2.755 194.981 5.125C197.351 7.495 198.536 11.335 198.536 16.645C198.536 26.515 193.841 31.45 184.451 31.45ZM184.451 26.275C187.181 26.275 189.176 25.495 190.436 23.935C191.726 22.345 192.371 19.915 192.371 16.645C192.371 13.015 191.726 10.465 190.436 8.995C189.176 7.495 187.181 6.745 184.451 6.745C181.721 6.745 179.711 7.495 178.421 8.995C177.161 10.465 176.531 13.015 176.531 16.645C176.531 19.915 177.161 22.345 178.421 23.935C179.711 25.495 181.721 26.275 184.451 26.275ZM206.823 31L200.073 2.02H206.058L210.423 21.595L215.148 5.8V2.02H220.098L225.678 21.64L230.178 2.02H236.118L229.413 31H223.653L218.343 12.46L212.628 31H206.823ZM235.186 31L246.256 2.02H252.916L263.941 31H257.641L254.896 24.025H244.231L241.531 31H235.186ZM245.131 19.345H253.996L249.541 7.69L245.131 19.345ZM292.183 31.45C287.323 31.45 283.603 30.145 281.023 27.535C278.443 24.895 277.153 21.31 277.153 16.78C277.153 11.98 278.398 8.245 280.888 5.575C283.408 2.905 287.158 1.57 292.138 1.57C293.878 1.57 295.438 1.705 296.818 1.975C298.228 2.215 299.548 2.56 300.778 3.01V8.32C298.228 7.27 295.498 6.745 292.588 6.745C289.288 6.745 286.918 7.57 285.478 9.22C284.038 10.87 283.318 13.39 283.318 16.78C283.318 23.14 286.438 26.32 292.678 26.32C294.088 26.32 295.483 26.2 296.863 25.96C298.243 25.69 299.563 25.3 300.823 24.79V30.145C299.593 30.535 298.273 30.85 296.863 31.09C295.483 31.33 293.923 31.45 292.183 31.45ZM305.036 31V0.669999H311.111V11.47C311.981 10.81 313.046 10.27 314.306 9.85C315.566 9.43 316.931 9.22 318.401 9.22C321.221 9.22 323.276 9.88 324.566 11.2C325.856 12.52 326.501 14.56 326.501 17.32V31H320.426V17.635C320.426 16.195 320.126 15.175 319.526 14.575C318.956 13.975 317.876 13.675 316.286 13.675C315.356 13.675 314.411 13.885 313.451 14.305C312.521 14.725 311.741 15.25 311.111 15.88V31H305.036ZM339.322 31.45C336.772 31.45 334.777 30.745 333.337 29.335C331.927 27.895 331.222 25.795 331.222 23.035V9.67H337.297V22.9C337.297 24.34 337.642 25.39 338.332 26.05C339.022 26.68 340.057 26.995 341.437 26.995C342.487 26.995 343.447 26.785 344.317 26.365C345.217 25.945 345.982 25.42 346.612 24.79V9.67H352.687V31H347.062L346.837 28.975C345.937 29.695 344.872 30.295 343.642 30.775C342.442 31.225 341.002 31.45 339.322 31.45ZM357.858 31V9.67H363.483L363.753 11.875C364.713 11.275 365.898 10.735 367.308 10.255C368.748 9.745 370.158 9.4 371.538 9.22V13.81C370.728 13.93 369.843 14.11 368.883 14.35C367.923 14.59 367.008 14.86 366.138 15.16C365.268 15.46 364.533 15.775 363.933 16.105V31H357.858ZM384.656 31.45C380.846 31.45 377.921 30.505 375.881 28.615C373.871 26.725 372.866 23.965 372.866 20.335C372.866 16.585 373.946 13.795 376.106 11.965C378.296 10.135 381.206 9.22 384.836 9.22C386.336 9.22 387.626 9.325 388.706 9.535C389.786 9.745 390.836 10.09 391.856 10.57V14.935C391.106 14.575 390.236 14.29 389.246 14.08C388.256 13.87 387.191 13.765 386.051 13.765C383.771 13.765 382.031 14.245 380.831 15.205C379.631 16.135 379.031 17.845 379.031 20.335C379.031 22.615 379.571 24.28 380.651 25.33C381.761 26.38 383.546 26.905 386.006 26.905C387.056 26.905 388.076 26.8 389.066 26.59C390.086 26.38 391.031 26.065 391.901 25.645V30.145C389.891 31.015 387.476 31.45 384.656 31.45ZM395.739 31V0.669999H401.814V11.47C402.684 10.81 403.749 10.27 405.009 9.85C406.269 9.43 407.634 9.22 409.104 9.22C411.924 9.22 413.979 9.88 415.269 11.2C416.559 12.52 417.204 14.56 417.204 17.32V31H411.129V17.635C411.129 16.195 410.829 15.175 410.229 14.575C409.659 13.975 408.579 13.675 406.989 13.675C406.059 13.675 405.114 13.885 404.154 14.305C403.224 14.725 402.444 15.25 401.814 15.88V31H395.739ZM454.583 31.54L451.298 28.21C450.278 29.23 448.958 30.025 447.338 30.595C445.718 31.165 443.903 31.45 441.893 31.45C438.623 31.45 436.013 30.76 434.063 29.38C432.113 27.97 431.138 26.08 431.138 23.71C431.138 21.7 431.708 20.005 432.848 18.625C434.018 17.245 435.608 15.985 437.618 14.845C436.598 13.795 435.743 12.805 435.053 11.875C434.393 10.915 434.063 9.775 434.063 8.455C434.063 6.445 434.783 4.795 436.223 3.505C437.663 2.215 439.628 1.57 442.118 1.57C444.608 1.57 446.573 2.2 448.013 3.46C449.453 4.69 450.173 6.355 450.173 8.455C450.173 9.985 449.798 11.29 449.048 12.37C448.298 13.45 447.203 14.515 445.763 15.565L451.973 21.91C452.393 21.07 452.603 20.08 452.603 18.94V18.04H457.193V19.075C457.193 20.215 457.028 21.325 456.698 22.405C456.368 23.485 455.933 24.415 455.393 25.195L458.318 28.165L454.583 31.54ZM441.938 13.135C443.018 12.445 443.843 11.8 444.413 11.2C444.983 10.6 445.268 9.775 445.268 8.725C445.268 7.825 445.013 7.09 444.503 6.52C444.023 5.92 443.243 5.62 442.163 5.62C441.053 5.62 440.243 5.935 439.733 6.565C439.223 7.165 438.968 7.885 438.968 8.725C438.968 9.655 439.223 10.435 439.733 11.065C440.273 11.695 441.008 12.385 441.938 13.135ZM441.893 27.265C444.533 27.265 446.438 26.485 447.608 24.925L441.263 18.49C439.853 19.12 438.788 19.825 438.068 20.605C437.348 21.355 436.988 22.345 436.988 23.575C436.988 24.775 437.438 25.69 438.338 26.32C439.268 26.95 440.453 27.265 441.893 27.265ZM472.336 31V2.02H493.126V6.745H478.411V14.17H491.461V18.85H478.411V26.32H493.126V31H472.336ZM502.614 31L494.199 9.67H500.544L505.854 24.88L511.209 9.67H517.509L509.139 31H502.614ZM530.428 31.45C526.738 31.45 523.813 30.535 521.653 28.705C519.493 26.845 518.413 24.04 518.413 20.29C518.413 16.9 519.313 14.215 521.113 12.235C522.943 10.225 525.658 9.22 529.258 9.22C532.558 9.22 535.078 10.09 536.818 11.83C538.588 13.54 539.473 15.79 539.473 18.58V22.45H524.038C524.368 24.16 525.148 25.33 526.378 25.96C527.638 26.59 529.408 26.905 531.688 26.905C532.828 26.905 533.983 26.8 535.153 26.59C536.353 26.38 537.373 26.11 538.213 25.78V30.1C537.223 30.55 536.068 30.88 534.748 31.09C533.428 31.33 531.988 31.45 530.428 31.45ZM524.038 18.715H534.163V17.545C534.163 16.315 533.803 15.355 533.083 14.665C532.363 13.945 531.148 13.585 529.438 13.585C527.428 13.585 526.018 13.99 525.208 14.8C524.428 15.61 524.038 16.915 524.038 18.715ZM543.703 31V9.67H549.328L549.553 11.695C550.423 11.035 551.518 10.465 552.838 9.985C554.188 9.475 555.598 9.22 557.068 9.22C559.888 9.22 561.943 9.88 563.233 11.2C564.523 12.52 565.168 14.56 565.168 17.32V31H559.093V17.635C559.093 16.195 558.793 15.175 558.193 14.575C557.623 13.975 556.543 13.675 554.953 13.675C554.023 13.675 553.078 13.885 552.118 14.305C551.188 14.725 550.408 15.25 549.778 15.88V31H543.703ZM578.574 31.45C576.114 31.45 574.284 30.805 573.084 29.515C571.914 28.225 571.329 26.47 571.329 24.25V14.35H568.314V9.67H571.329V5.08L577.404 3.28V9.67H582.804L582.444 14.35H577.404V23.845C577.404 25.015 577.674 25.825 578.214 26.275C578.754 26.695 579.594 26.905 580.734 26.905C581.574 26.905 582.444 26.755 583.344 26.455V30.64C582.684 30.91 581.964 31.105 581.184 31.225C580.404 31.375 579.534 31.45 578.574 31.45ZM585.561 31V26.455H590.511V31H585.561ZM156.233 86H154.088V78.828H145.596V86H143.451V70.237H145.596V77.266H154.088V70.237H156.233V86ZM167.956 86H167.087C166.896 86 166.742 85.9707 166.625 85.912C166.508 85.8533 166.431 85.7287 166.394 85.538L166.174 84.504C165.881 84.768 165.595 85.0063 165.316 85.219C165.037 85.4243 164.744 85.6003 164.436 85.747C164.128 85.8863 163.798 85.9927 163.446 86.066C163.101 86.1393 162.716 86.176 162.291 86.176C161.858 86.176 161.451 86.1173 161.07 86C160.696 85.8753 160.37 85.692 160.091 85.45C159.812 85.208 159.589 84.9037 159.42 84.537C159.259 84.163 159.178 83.723 159.178 83.217C159.178 82.777 159.299 82.3553 159.541 81.952C159.783 81.5413 160.172 81.1783 160.707 80.863C161.25 80.5477 161.957 80.291 162.83 80.093C163.703 79.8877 164.77 79.7703 166.031 79.741V78.872C166.031 78.0067 165.844 77.354 165.47 76.914C165.103 76.4667 164.557 76.243 163.831 76.243C163.354 76.243 162.951 76.3053 162.621 76.43C162.298 76.5473 162.016 76.683 161.774 76.837C161.539 76.9837 161.334 77.1193 161.158 77.244C160.989 77.3613 160.821 77.42 160.652 77.42C160.52 77.42 160.403 77.387 160.3 77.321C160.205 77.2477 160.128 77.1597 160.069 77.057L159.717 76.43C160.333 75.836 160.997 75.3923 161.708 75.099C162.419 74.8057 163.208 74.659 164.073 74.659C164.696 74.659 165.25 74.7617 165.734 74.967C166.218 75.1723 166.625 75.4583 166.955 75.825C167.285 76.1917 167.534 76.6353 167.703 77.156C167.872 77.6767 167.956 78.2487 167.956 78.872V86ZM162.874 84.801C163.219 84.801 163.534 84.768 163.82 84.702C164.106 84.6287 164.374 84.5297 164.623 84.405C164.88 84.273 165.122 84.1153 165.349 83.932C165.584 83.7487 165.811 83.5397 166.031 83.305V80.984C165.129 81.0133 164.363 81.0867 163.732 81.204C163.101 81.314 162.588 81.4607 162.192 81.644C161.796 81.8273 161.506 82.0437 161.323 82.293C161.147 82.5423 161.059 82.821 161.059 83.129C161.059 83.4223 161.107 83.6753 161.202 83.888C161.297 84.1007 161.426 84.2767 161.587 84.416C161.748 84.548 161.939 84.647 162.159 84.713C162.379 84.7717 162.617 84.801 162.874 84.801ZM170.922 89.773V74.857H172.088C172.367 74.857 172.543 74.9927 172.616 75.264L172.781 76.584C173.258 76.0047 173.801 75.539 174.409 75.187C175.025 74.835 175.733 74.659 176.532 74.659C177.17 74.659 177.75 74.7837 178.27 75.033C178.791 75.275 179.235 75.638 179.601 76.122C179.968 76.5987 180.25 77.1927 180.448 77.904C180.646 78.6153 180.745 79.433 180.745 80.357C180.745 81.1783 180.635 81.9447 180.415 82.656C180.195 83.36 179.88 83.9723 179.469 84.493C179.059 85.0063 178.553 85.4133 177.951 85.714C177.357 86.0073 176.686 86.154 175.938 86.154C175.249 86.154 174.659 86.0403 174.167 85.813C173.683 85.5857 173.254 85.263 172.88 84.845V89.773H170.922ZM175.883 76.243C175.245 76.243 174.684 76.3897 174.2 76.683C173.724 76.9763 173.284 77.3907 172.88 77.926V83.316C173.24 83.8 173.632 84.141 174.057 84.339C174.49 84.537 174.97 84.636 175.498 84.636C176.532 84.636 177.328 84.2657 177.885 83.525C178.443 82.7843 178.721 81.7283 178.721 80.357C178.721 79.631 178.655 79.0077 178.523 78.487C178.399 77.9663 178.215 77.541 177.973 77.211C177.731 76.8737 177.434 76.628 177.082 76.474C176.73 76.32 176.331 76.243 175.883 76.243ZM183.061 89.773V74.857H184.227C184.506 74.857 184.682 74.9927 184.755 75.264L184.92 76.584C185.397 76.0047 185.939 75.539 186.548 75.187C187.164 74.835 187.872 74.659 188.671 74.659C189.309 74.659 189.888 74.7837 190.409 75.033C190.93 75.275 191.373 75.638 191.74 76.122C192.107 76.5987 192.389 77.1927 192.587 77.904C192.785 78.6153 192.884 79.433 192.884 80.357C192.884 81.1783 192.774 81.9447 192.554 82.656C192.334 83.36 192.019 83.9723 191.608 84.493C191.197 85.0063 190.691 85.4133 190.09 85.714C189.496 86.0073 188.825 86.154 188.077 86.154C187.388 86.154 186.797 86.0403 186.306 85.813C185.822 85.5857 185.393 85.263 185.019 84.845V89.773H183.061ZM188.022 76.243C187.384 76.243 186.823 76.3897 186.339 76.683C185.862 76.9763 185.422 77.3907 185.019 77.926V83.316C185.378 83.8 185.771 84.141 186.196 84.339C186.629 84.537 187.109 84.636 187.637 84.636C188.671 84.636 189.467 84.2657 190.024 83.525C190.581 82.7843 190.86 81.7283 190.86 80.357C190.86 79.631 190.794 79.0077 190.662 78.487C190.537 77.9663 190.354 77.541 190.112 77.211C189.87 76.8737 189.573 76.628 189.221 76.474C188.869 76.32 188.469 76.243 188.022 76.243ZM199.611 74.681C200.278 74.681 200.894 74.7947 201.459 75.022C202.023 75.242 202.511 75.5647 202.922 75.99C203.332 76.408 203.651 76.9287 203.879 77.552C204.113 78.168 204.231 78.872 204.231 79.664C204.231 79.972 204.198 80.1773 204.132 80.28C204.066 80.3827 203.941 80.434 203.758 80.434H196.344C196.358 81.138 196.454 81.7503 196.63 82.271C196.806 82.7917 197.048 83.228 197.356 83.58C197.664 83.9247 198.03 84.185 198.456 84.361C198.881 84.5297 199.358 84.614 199.886 84.614C200.377 84.614 200.799 84.559 201.151 84.449C201.51 84.3317 201.818 84.207 202.075 84.075C202.331 83.943 202.544 83.822 202.713 83.712C202.889 83.5947 203.039 83.536 203.164 83.536C203.325 83.536 203.45 83.5983 203.538 83.723L204.088 84.438C203.846 84.7313 203.556 84.988 203.219 85.208C202.881 85.4207 202.518 85.5967 202.13 85.736C201.748 85.8753 201.352 85.978 200.942 86.044C200.531 86.1173 200.124 86.154 199.721 86.154C198.951 86.154 198.239 86.0257 197.587 85.769C196.941 85.505 196.38 85.1237 195.904 84.625C195.434 84.119 195.068 83.4957 194.804 82.755C194.54 82.0143 194.408 81.1637 194.408 80.203C194.408 79.4257 194.525 78.6997 194.76 78.025C195.002 77.3503 195.346 76.7673 195.794 76.276C196.241 75.7773 196.787 75.3887 197.433 75.11C198.078 74.824 198.804 74.681 199.611 74.681ZM199.655 76.122C198.709 76.122 197.964 76.397 197.422 76.947C196.879 77.4897 196.542 78.245 196.41 79.213H202.471C202.471 78.7583 202.408 78.344 202.284 77.97C202.159 77.5887 201.976 77.2623 201.734 76.991C201.492 76.7123 201.195 76.4997 200.843 76.353C200.498 76.199 200.102 76.122 199.655 76.122ZM206.737 86V74.857H207.903C208.182 74.857 208.358 74.9927 208.431 75.264L208.585 76.474C209.069 75.9387 209.608 75.506 210.202 75.176C210.803 74.846 211.496 74.681 212.281 74.681C212.89 74.681 213.425 74.7837 213.887 74.989C214.356 75.187 214.745 75.473 215.053 75.847C215.368 76.2137 215.607 76.6573 215.768 77.178C215.929 77.6987 216.01 78.2743 216.01 78.905V86H214.052V78.905C214.052 78.0617 213.858 77.409 213.469 76.947C213.088 76.4777 212.501 76.243 211.709 76.243C211.13 76.243 210.587 76.3823 210.081 76.661C209.582 76.9397 209.12 77.3173 208.695 77.794V86H206.737ZM221.139 74.857V86H219.181V74.857H221.139ZM221.579 71.359C221.579 71.5497 221.539 71.7293 221.458 71.898C221.385 72.0593 221.282 72.206 221.15 72.338C221.026 72.4627 220.879 72.5617 220.71 72.635C220.542 72.7083 220.362 72.745 220.171 72.745C219.981 72.745 219.801 72.7083 219.632 72.635C219.471 72.5617 219.324 72.4627 219.192 72.338C219.068 72.206 218.969 72.0593 218.895 71.898C218.822 71.7293 218.785 71.5497 218.785 71.359C218.785 71.1683 218.822 70.9887 218.895 70.82C218.969 70.644 219.068 70.4937 219.192 70.369C219.324 70.237 219.471 70.1343 219.632 70.061C219.801 69.9877 219.981 69.951 220.171 69.951C220.362 69.951 220.542 69.9877 220.71 70.061C220.879 70.1343 221.026 70.237 221.15 70.369C221.282 70.4937 221.385 70.644 221.458 70.82C221.539 70.9887 221.579 71.1683 221.579 71.359ZM224.59 86V74.857H225.756C226.035 74.857 226.211 74.9927 226.284 75.264L226.438 76.474C226.922 75.9387 227.461 75.506 228.055 75.176C228.657 74.846 229.35 74.681 230.134 74.681C230.743 74.681 231.278 74.7837 231.74 74.989C232.21 75.187 232.598 75.473 232.906 75.847C233.222 76.2137 233.46 76.6573 233.621 77.178C233.783 77.6987 233.863 78.2743 233.863 78.905V86H231.905V78.905C231.905 78.0617 231.711 77.409 231.322 76.947C230.941 76.4777 230.354 76.243 229.562 76.243C228.983 76.243 228.44 76.3823 227.934 76.661C227.436 76.9397 226.974 77.3173 226.548 77.794V86H224.59ZM240.566 74.67C241.05 74.67 241.501 74.725 241.919 74.835C242.344 74.9377 242.729 75.0917 243.074 75.297H246.099V76.023C246.099 76.265 245.945 76.419 245.637 76.485L244.372 76.661C244.621 77.1377 244.746 77.6693 244.746 78.256C244.746 78.7987 244.64 79.2937 244.427 79.741C244.222 80.181 243.932 80.5587 243.558 80.874C243.191 81.1893 242.751 81.4313 242.238 81.6C241.732 81.7687 241.175 81.853 240.566 81.853C240.045 81.853 239.554 81.7907 239.092 81.666C238.857 81.8127 238.678 81.9703 238.553 82.139C238.436 82.3077 238.377 82.4727 238.377 82.634C238.377 82.898 238.483 83.0997 238.696 83.239C238.909 83.371 239.191 83.4663 239.543 83.525C239.895 83.5837 240.295 83.6203 240.742 83.635C241.189 83.6497 241.644 83.6753 242.106 83.712C242.575 83.7413 243.034 83.7963 243.481 83.877C243.928 83.9577 244.328 84.0897 244.68 84.273C245.032 84.4563 245.314 84.7093 245.527 85.032C245.74 85.3547 245.846 85.7727 245.846 86.286C245.846 86.7627 245.725 87.2247 245.483 87.672C245.248 88.1193 244.907 88.5153 244.46 88.86C244.013 89.212 243.466 89.4907 242.821 89.696C242.176 89.9087 241.446 90.015 240.632 90.015C239.818 90.015 239.103 89.9343 238.487 89.773C237.878 89.6117 237.372 89.3953 236.969 89.124C236.566 88.8527 236.261 88.5373 236.056 88.178C235.858 87.826 235.759 87.4557 235.759 87.067C235.759 86.517 235.931 86.0513 236.276 85.67C236.628 85.2813 237.108 84.9733 237.717 84.746C237.402 84.5993 237.149 84.405 236.958 84.163C236.775 83.9137 236.683 83.5837 236.683 83.173C236.683 83.0117 236.712 82.8467 236.771 82.678C236.83 82.502 236.918 82.3297 237.035 82.161C237.16 81.9923 237.31 81.831 237.486 81.677C237.662 81.523 237.867 81.3873 238.102 81.27C237.552 80.962 237.119 80.555 236.804 80.049C236.496 79.5357 236.342 78.938 236.342 78.256C236.342 77.7133 236.445 77.222 236.65 76.782C236.863 76.3347 237.156 75.957 237.53 75.649C237.904 75.3337 238.348 75.0917 238.861 74.923C239.382 74.7543 239.95 74.67 240.566 74.67ZM244.042 86.605C244.042 86.3263 243.965 86.1027 243.811 85.934C243.657 85.7653 243.448 85.637 243.184 85.549C242.92 85.4537 242.616 85.384 242.271 85.34C241.926 85.296 241.563 85.2667 241.182 85.252C240.801 85.23 240.412 85.208 240.016 85.186C239.62 85.164 239.242 85.1237 238.883 85.065C238.465 85.263 238.124 85.505 237.86 85.791C237.603 86.077 237.475 86.418 237.475 86.814C237.475 87.0633 237.537 87.2943 237.662 87.507C237.794 87.727 237.992 87.914 238.256 88.068C238.52 88.2293 238.85 88.354 239.246 88.442C239.649 88.5373 240.122 88.585 240.665 88.585C241.193 88.585 241.666 88.5373 242.084 88.442C242.502 88.3467 242.854 88.211 243.14 88.035C243.433 87.859 243.657 87.65 243.811 87.408C243.965 87.166 244.042 86.8983 244.042 86.605ZM240.566 80.555C240.962 80.555 241.31 80.5 241.611 80.39C241.919 80.28 242.176 80.126 242.381 79.928C242.586 79.73 242.74 79.4953 242.843 79.224C242.946 78.9453 242.997 78.641 242.997 78.311C242.997 77.629 242.788 77.0863 242.37 76.683C241.959 76.2797 241.358 76.078 240.566 76.078C239.781 76.078 239.18 76.2797 238.762 76.683C238.351 77.0863 238.146 77.629 238.146 78.311C238.146 78.641 238.197 78.9453 238.3 79.224C238.41 79.4953 238.568 79.73 238.773 79.928C238.978 80.126 239.231 80.28 239.532 80.39C239.833 80.5 240.177 80.555 240.566 80.555ZM254.956 79.422V86H252.833V70.237H257.288C258.286 70.237 259.147 70.3397 259.873 70.545C260.599 70.743 261.197 71.0327 261.666 71.414C262.143 71.7953 262.495 72.2573 262.722 72.8C262.95 73.3353 263.063 73.9367 263.063 74.604C263.063 75.1613 262.975 75.682 262.799 76.166C262.623 76.65 262.367 77.0863 262.029 77.475C261.699 77.8563 261.292 78.1827 260.808 78.454C260.332 78.7253 259.789 78.9307 259.18 79.07C259.444 79.224 259.679 79.4477 259.884 79.741L264.482 86H262.59C262.202 86 261.916 85.8497 261.732 85.549L257.64 79.917C257.516 79.741 257.38 79.6163 257.233 79.543C257.087 79.4623 256.867 79.422 256.573 79.422H254.956ZM254.956 77.871H257.189C257.813 77.871 258.359 77.7977 258.828 77.651C259.305 77.497 259.701 77.2843 260.016 77.013C260.339 76.7343 260.581 76.4043 260.742 76.023C260.904 75.6417 260.984 75.22 260.984 74.758C260.984 73.8193 260.673 73.1117 260.049 72.635C259.433 72.1583 258.513 71.92 257.288 71.92H254.956V77.871ZM268.641 74.857V86H266.683V74.857H268.641ZM269.081 71.359C269.081 71.5497 269.041 71.7293 268.96 71.898C268.887 72.0593 268.784 72.206 268.652 72.338C268.528 72.4627 268.381 72.5617 268.212 72.635C268.044 72.7083 267.864 72.745 267.673 72.745C267.483 72.745 267.303 72.7083 267.134 72.635C266.973 72.5617 266.826 72.4627 266.694 72.338C266.57 72.206 266.471 72.0593 266.397 71.898C266.324 71.7293 266.287 71.5497 266.287 71.359C266.287 71.1683 266.324 70.9887 266.397 70.82C266.471 70.644 266.57 70.4937 266.694 70.369C266.826 70.237 266.973 70.1343 267.134 70.061C267.303 69.9877 267.483 69.951 267.673 69.951C267.864 69.951 268.044 69.9877 268.212 70.061C268.381 70.1343 268.528 70.237 268.652 70.369C268.784 70.4937 268.887 70.644 268.96 70.82C269.041 70.9887 269.081 71.1683 269.081 71.359ZM275.843 74.67C276.327 74.67 276.778 74.725 277.196 74.835C277.622 74.9377 278.007 75.0917 278.351 75.297H281.376V76.023C281.376 76.265 281.222 76.419 280.914 76.485L279.649 76.661C279.899 77.1377 280.023 77.6693 280.023 78.256C280.023 78.7987 279.917 79.2937 279.704 79.741C279.499 80.181 279.209 80.5587 278.835 80.874C278.469 81.1893 278.029 81.4313 277.515 81.6C277.009 81.7687 276.452 81.853 275.843 81.853C275.323 81.853 274.831 81.7907 274.369 81.666C274.135 81.8127 273.955 81.9703 273.83 82.139C273.713 82.3077 273.654 82.4727 273.654 82.634C273.654 82.898 273.761 83.0997 273.973 83.239C274.186 83.371 274.468 83.4663 274.82 83.525C275.172 83.5837 275.572 83.6203 276.019 83.635C276.467 83.6497 276.921 83.6753 277.383 83.712C277.853 83.7413 278.311 83.7963 278.758 83.877C279.206 83.9577 279.605 84.0897 279.957 84.273C280.309 84.4563 280.592 84.7093 280.804 85.032C281.017 85.3547 281.123 85.7727 281.123 86.286C281.123 86.7627 281.002 87.2247 280.76 87.672C280.526 88.1193 280.185 88.5153 279.737 88.86C279.29 89.212 278.744 89.4907 278.098 89.696C277.453 89.9087 276.723 90.015 275.909 90.015C275.095 90.015 274.38 89.9343 273.764 89.773C273.156 89.6117 272.65 89.3953 272.246 89.124C271.843 88.8527 271.539 88.5373 271.333 88.178C271.135 87.826 271.036 87.4557 271.036 87.067C271.036 86.517 271.209 86.0513 271.553 85.67C271.905 85.2813 272.386 84.9733 272.994 84.746C272.679 84.5993 272.426 84.405 272.235 84.163C272.052 83.9137 271.96 83.5837 271.96 83.173C271.96 83.0117 271.99 82.8467 272.048 82.678C272.107 82.502 272.195 82.3297 272.312 82.161C272.437 81.9923 272.587 81.831 272.763 81.677C272.939 81.523 273.145 81.3873 273.379 81.27C272.829 80.962 272.397 80.555 272.081 80.049C271.773 79.5357 271.619 78.938 271.619 78.256C271.619 77.7133 271.722 77.222 271.927 76.782C272.14 76.3347 272.433 75.957 272.807 75.649C273.181 75.3337 273.625 75.0917 274.138 74.923C274.659 74.7543 275.227 74.67 275.843 74.67ZM279.319 86.605C279.319 86.3263 279.242 86.1027 279.088 85.934C278.934 85.7653 278.725 85.637 278.461 85.549C278.197 85.4537 277.893 85.384 277.548 85.34C277.204 85.296 276.841 85.2667 276.459 85.252C276.078 85.23 275.689 85.208 275.293 85.186C274.897 85.164 274.52 85.1237 274.16 85.065C273.742 85.263 273.401 85.505 273.137 85.791C272.881 86.077 272.752 86.418 272.752 86.814C272.752 87.0633 272.815 87.2943 272.939 87.507C273.071 87.727 273.269 87.914 273.533 88.068C273.797 88.2293 274.127 88.354 274.523 88.442C274.927 88.5373 275.4 88.585 275.942 88.585C276.47 88.585 276.943 88.5373 277.361 88.442C277.779 88.3467 278.131 88.211 278.417 88.035C278.711 87.859 278.934 87.65 279.088 87.408C279.242 87.166 279.319 86.8983 279.319 86.605ZM275.843 80.555C276.239 80.555 276.588 80.5 276.888 80.39C277.196 80.28 277.453 80.126 277.658 79.928C277.864 79.73 278.018 79.4953 278.12 79.224C278.223 78.9453 278.274 78.641 278.274 78.311C278.274 77.629 278.065 77.0863 277.647 76.683C277.237 76.2797 276.635 76.078 275.843 76.078C275.059 76.078 274.457 76.2797 274.039 76.683C273.629 77.0863 273.423 77.629 273.423 78.311C273.423 78.641 273.475 78.9453 273.577 79.224C273.687 79.4953 273.845 79.73 274.05 79.928C274.256 80.126 274.509 80.28 274.809 80.39C275.11 80.5 275.455 80.555 275.843 80.555ZM283.329 86V69.797H285.287V76.353C285.763 75.847 286.291 75.4437 286.871 75.143C287.45 74.835 288.117 74.681 288.873 74.681C289.481 74.681 290.017 74.7837 290.479 74.989C290.948 75.187 291.337 75.473 291.645 75.847C291.96 76.2137 292.198 76.6573 292.36 77.178C292.521 77.6987 292.602 78.2743 292.602 78.905V86H290.644V78.905C290.644 78.0617 290.449 77.409 290.061 76.947C289.679 76.4777 289.093 76.243 288.301 76.243C287.721 76.243 287.179 76.3823 286.673 76.661C286.174 76.9397 285.712 77.3173 285.287 77.794V86H283.329ZM298.93 86.176C298.05 86.176 297.372 85.9303 296.895 85.439C296.426 84.9477 296.191 84.24 296.191 83.316V76.496H294.849C294.732 76.496 294.633 76.463 294.552 76.397C294.472 76.3237 294.431 76.2137 294.431 76.067V75.286L296.257 75.055L296.708 71.612C296.723 71.502 296.771 71.414 296.851 71.348C296.932 71.2747 297.035 71.238 297.159 71.238H298.149V75.077H301.339V76.496H298.149V83.184C298.149 83.6533 298.263 84.0017 298.49 84.229C298.718 84.4563 299.011 84.57 299.37 84.57C299.576 84.57 299.752 84.5443 299.898 84.493C300.052 84.4343 300.184 84.372 300.294 84.306C300.404 84.24 300.496 84.1813 300.569 84.13C300.65 84.0713 300.72 84.042 300.778 84.042C300.881 84.042 300.973 84.1043 301.053 84.229L301.625 85.164C301.288 85.4793 300.881 85.7287 300.404 85.912C299.928 86.088 299.436 86.176 298.93 86.176ZM308.014 86V74.857H309.18C309.459 74.857 309.635 74.9927 309.708 75.264L309.862 76.474C310.346 75.9387 310.885 75.506 311.479 75.176C312.081 74.846 312.774 74.681 313.558 74.681C314.167 74.681 314.702 74.7837 315.164 74.989C315.634 75.187 316.022 75.473 316.33 75.847C316.646 76.2137 316.884 76.6573 317.045 77.178C317.207 77.6987 317.287 78.2743 317.287 78.905V86H315.329V78.905C315.329 78.0617 315.135 77.409 314.746 76.947C314.365 76.4777 313.778 76.243 312.986 76.243C312.407 76.243 311.864 76.3823 311.358 76.661C310.86 76.9397 310.398 77.3173 309.972 77.794V86H308.014ZM324.749 74.681C325.563 74.681 326.296 74.8167 326.949 75.088C327.609 75.3593 328.166 75.7443 328.621 76.243C329.083 76.7417 329.435 77.3467 329.677 78.058C329.926 78.762 330.051 79.5503 330.051 80.423C330.051 81.303 329.926 82.095 329.677 82.799C329.435 83.503 329.083 84.1043 328.621 84.603C328.166 85.1017 327.609 85.4867 326.949 85.758C326.296 86.022 325.563 86.154 324.749 86.154C323.935 86.154 323.198 86.022 322.538 85.758C321.885 85.4867 321.328 85.1017 320.866 84.603C320.404 84.1043 320.048 83.503 319.799 82.799C319.549 82.095 319.425 81.303 319.425 80.423C319.425 79.5503 319.549 78.762 319.799 78.058C320.048 77.3467 320.404 76.7417 320.866 76.243C321.328 75.7443 321.885 75.3593 322.538 75.088C323.198 74.8167 323.935 74.681 324.749 74.681ZM324.749 84.625C325.849 84.625 326.67 84.2583 327.213 83.525C327.755 82.7843 328.027 81.754 328.027 80.434C328.027 79.1067 327.755 78.0727 327.213 77.332C326.67 76.5913 325.849 76.221 324.749 76.221C324.191 76.221 323.707 76.3163 323.297 76.507C322.886 76.6977 322.541 76.9727 322.263 77.332C321.991 77.6913 321.786 78.135 321.647 78.663C321.515 79.1837 321.449 79.774 321.449 80.434C321.449 81.094 321.515 81.6843 321.647 82.205C321.786 82.7257 321.991 83.1657 322.263 83.525C322.541 83.877 322.886 84.1483 323.297 84.339C323.707 84.5297 324.191 84.625 324.749 84.625ZM331.011 74.857H332.551C332.713 74.857 332.845 74.8973 332.947 74.978C333.05 75.0587 333.12 75.154 333.156 75.264L335.29 82.436C335.349 82.7 335.404 82.9567 335.455 83.206C335.507 83.448 335.551 83.6937 335.587 83.943C335.646 83.6937 335.712 83.448 335.785 83.206C335.859 82.9567 335.936 82.7 336.016 82.436L338.37 75.22C338.407 75.11 338.469 75.0183 338.557 74.945C338.653 74.8717 338.77 74.835 338.909 74.835H339.756C339.903 74.835 340.024 74.8717 340.119 74.945C340.215 75.0183 340.281 75.11 340.317 75.22L342.616 82.436C342.697 82.6927 342.767 82.9457 342.825 83.195C342.891 83.4443 342.954 83.69 343.012 83.932C343.049 83.69 343.097 83.437 343.155 83.173C343.214 82.909 343.276 82.6633 343.342 82.436L345.52 75.264C345.557 75.1467 345.627 75.0513 345.729 74.978C345.832 74.8973 345.953 74.857 346.092 74.857H347.566L343.958 86H342.407C342.217 86 342.085 85.8753 342.011 85.626L339.547 78.069C339.489 77.9003 339.441 77.7317 339.404 77.563C339.368 77.387 339.331 77.2147 339.294 77.046C339.258 77.2147 339.221 77.387 339.184 77.563C339.148 77.739 339.1 77.9113 339.041 78.08L336.544 85.626C336.464 85.8753 336.313 86 336.093 86H334.619L331.011 74.857ZM348.048 84.647C348.048 84.4783 348.077 84.3207 348.136 84.174C348.202 84.02 348.29 83.888 348.4 83.778C348.517 83.6607 348.656 83.569 348.818 83.503C348.979 83.437 349.155 83.404 349.346 83.404C349.566 83.404 349.76 83.4443 349.929 83.525C350.105 83.6057 350.248 83.7193 350.358 83.866C350.475 84.0053 350.563 84.1703 350.622 84.361C350.68 84.5443 350.71 84.746 350.71 84.966C350.71 85.296 350.662 85.6407 350.567 86C350.471 86.352 350.336 86.7003 350.16 87.045C349.984 87.397 349.764 87.738 349.5 88.068C349.243 88.398 348.95 88.7023 348.62 88.981L348.29 88.662C348.194 88.574 348.147 88.4713 348.147 88.354C348.147 88.2587 348.198 88.1597 348.301 88.057C348.374 87.9763 348.466 87.8663 348.576 87.727C348.693 87.595 348.81 87.441 348.928 87.265C349.045 87.089 349.151 86.8947 349.247 86.682C349.349 86.4693 349.423 86.242 349.467 86H349.324C349.133 86 348.961 85.967 348.807 85.901C348.653 85.835 348.517 85.7433 348.4 85.626C348.29 85.5013 348.202 85.3583 348.136 85.197C348.077 85.0283 348.048 84.845 348.048 84.647ZM358.944 70.237C359.134 70.237 359.274 70.2627 359.362 70.314C359.457 70.358 359.563 70.4533 359.681 70.6L368.811 82.48C368.789 82.2893 368.774 82.106 368.767 81.93C368.759 81.7467 368.756 81.5707 368.756 81.402V70.237H370.626V86H369.548C369.379 86 369.236 85.9707 369.119 85.912C369.009 85.8533 368.899 85.7543 368.789 85.615L359.67 73.746C359.684 73.9293 359.695 74.109 359.703 74.285C359.71 74.461 359.714 74.6223 359.714 74.769V86H357.844V70.237H358.944ZM378.576 74.681C379.243 74.681 379.859 74.7947 380.424 75.022C380.988 75.242 381.476 75.5647 381.887 75.99C382.297 76.408 382.616 76.9287 382.844 77.552C383.078 78.168 383.196 78.872 383.196 79.664C383.196 79.972 383.163 80.1773 383.097 80.28C383.031 80.3827 382.906 80.434 382.723 80.434H375.309C375.323 81.138 375.419 81.7503 375.595 82.271C375.771 82.7917 376.013 83.228 376.321 83.58C376.629 83.9247 376.995 84.185 377.421 84.361C377.846 84.5297 378.323 84.614 378.851 84.614C379.342 84.614 379.764 84.559 380.116 84.449C380.475 84.3317 380.783 84.207 381.04 84.075C381.296 83.943 381.509 83.822 381.678 83.712C381.854 83.5947 382.004 83.536 382.129 83.536C382.29 83.536 382.415 83.5983 382.503 83.723L383.053 84.438C382.811 84.7313 382.521 84.988 382.184 85.208C381.846 85.4207 381.483 85.5967 381.095 85.736C380.713 85.8753 380.317 85.978 379.907 86.044C379.496 86.1173 379.089 86.154 378.686 86.154C377.916 86.154 377.204 86.0257 376.552 85.769C375.906 85.505 375.345 85.1237 374.869 84.625C374.399 84.119 374.033 83.4957 373.769 82.755C373.505 82.0143 373.373 81.1637 373.373 80.203C373.373 79.4257 373.49 78.6997 373.725 78.025C373.967 77.3503 374.311 76.7673 374.759 76.276C375.206 75.7773 375.752 75.3887 376.398 75.11C377.043 74.824 377.769 74.681 378.576 74.681ZM378.62 76.122C377.674 76.122 376.929 76.397 376.387 76.947C375.844 77.4897 375.507 78.245 375.375 79.213H381.436C381.436 78.7583 381.373 78.344 381.249 77.97C381.124 77.5887 380.941 77.2623 380.699 76.991C380.457 76.7123 380.16 76.4997 379.808 76.353C379.463 76.199 379.067 76.122 378.62 76.122ZM393.886 86H393.017C392.826 86 392.672 85.9707 392.555 85.912C392.437 85.8533 392.36 85.7287 392.324 85.538L392.104 84.504C391.81 84.768 391.524 85.0063 391.246 85.219C390.967 85.4243 390.674 85.6003 390.366 85.747C390.058 85.8863 389.728 85.9927 389.376 86.066C389.031 86.1393 388.646 86.176 388.221 86.176C387.788 86.176 387.381 86.1173 387 86C386.626 85.8753 386.299 85.692 386.021 85.45C385.742 85.208 385.518 84.9037 385.35 84.537C385.188 84.163 385.108 83.723 385.108 83.217C385.108 82.777 385.229 82.3553 385.471 81.952C385.713 81.5413 386.101 81.1783 386.637 80.863C387.179 80.5477 387.887 80.291 388.76 80.093C389.632 79.8877 390.699 79.7703 391.961 79.741V78.872C391.961 78.0067 391.774 77.354 391.4 76.914C391.033 76.4667 390.487 76.243 389.761 76.243C389.284 76.243 388.881 76.3053 388.551 76.43C388.228 76.5473 387.946 76.683 387.704 76.837C387.469 76.9837 387.264 77.1193 387.088 77.244C386.919 77.3613 386.75 77.42 386.582 77.42C386.45 77.42 386.332 77.387 386.23 77.321C386.134 77.2477 386.057 77.1597 385.999 77.057L385.647 76.43C386.263 75.836 386.926 75.3923 387.638 75.099C388.349 74.8057 389.137 74.659 390.003 74.659C390.626 74.659 391.18 74.7617 391.664 74.967C392.148 75.1723 392.555 75.4583 392.885 75.825C393.215 76.1917 393.464 76.6353 393.633 77.156C393.801 77.6767 393.886 78.2487 393.886 78.872V86ZM388.804 84.801C389.148 84.801 389.464 84.768 389.75 84.702C390.036 84.6287 390.303 84.5297 390.553 84.405C390.809 84.273 391.051 84.1153 391.279 83.932C391.513 83.7487 391.741 83.5397 391.961 83.305V80.984C391.059 81.0133 390.292 81.0867 389.662 81.204C389.031 81.314 388.518 81.4607 388.122 81.644C387.726 81.8273 387.436 82.0437 387.253 82.293C387.077 82.5423 386.989 82.821 386.989 83.129C386.989 83.4223 387.036 83.6753 387.132 83.888C387.227 84.1007 387.355 84.2767 387.517 84.416C387.678 84.548 387.869 84.647 388.089 84.713C388.309 84.7717 388.547 84.801 388.804 84.801ZM396.852 86V74.857H397.974C398.187 74.857 398.333 74.8973 398.414 74.978C398.495 75.0587 398.55 75.198 398.579 75.396L398.711 77.134C399.092 76.3567 399.562 75.7517 400.119 75.319C400.684 74.879 401.344 74.659 402.099 74.659C402.407 74.659 402.686 74.6957 402.935 74.769C403.184 74.835 403.415 74.9303 403.628 75.055L403.375 76.518C403.324 76.7013 403.21 76.793 403.034 76.793C402.931 76.793 402.774 76.76 402.561 76.694C402.348 76.6207 402.051 76.584 401.67 76.584C400.988 76.584 400.416 76.782 399.954 77.178C399.499 77.574 399.118 78.1497 398.81 78.905V86H396.852ZM413.246 89.289C413.18 89.4357 413.096 89.553 412.993 89.641C412.898 89.729 412.747 89.773 412.542 89.773H411.09L413.125 85.351L408.527 74.857H410.221C410.39 74.857 410.522 74.901 410.617 74.989C410.712 75.0697 410.782 75.1613 410.826 75.264L413.807 82.282C413.873 82.4433 413.928 82.6047 413.972 82.766C414.023 82.9273 414.067 83.0923 414.104 83.261C414.155 83.0923 414.207 82.9273 414.258 82.766C414.309 82.6047 414.368 82.4397 414.434 82.271L417.327 75.264C417.371 75.1467 417.444 75.0513 417.547 74.978C417.657 74.8973 417.774 74.857 417.899 74.857H419.461L413.246 89.289ZM425.468 74.681C426.282 74.681 427.015 74.8167 427.668 75.088C428.328 75.3593 428.885 75.7443 429.34 76.243C429.802 76.7417 430.154 77.3467 430.396 78.058C430.645 78.762 430.77 79.5503 430.77 80.423C430.77 81.303 430.645 82.095 430.396 82.799C430.154 83.503 429.802 84.1043 429.34 84.603C428.885 85.1017 428.328 85.4867 427.668 85.758C427.015 86.022 426.282 86.154 425.468 86.154C424.654 86.154 423.917 86.022 423.257 85.758C422.604 85.4867 422.047 85.1017 421.585 84.603C421.123 84.1043 420.767 83.503 420.518 82.799C420.268 82.095 420.144 81.303 420.144 80.423C420.144 79.5503 420.268 78.762 420.518 78.058C420.767 77.3467 421.123 76.7417 421.585 76.243C422.047 75.7443 422.604 75.3593 423.257 75.088C423.917 74.8167 424.654 74.681 425.468 74.681ZM425.468 84.625C426.568 84.625 427.389 84.2583 427.932 83.525C428.474 82.7843 428.746 81.754 428.746 80.434C428.746 79.1067 428.474 78.0727 427.932 77.332C427.389 76.5913 426.568 76.221 425.468 76.221C424.91 76.221 424.426 76.3163 424.016 76.507C423.605 76.6977 423.26 76.9727 422.982 77.332C422.71 77.6913 422.505 78.135 422.366 78.663C422.234 79.1837 422.168 79.774 422.168 80.434C422.168 81.094 422.234 81.6843 422.366 82.205C422.505 82.7257 422.71 83.1657 422.982 83.525C423.26 83.877 423.605 84.1483 424.016 84.339C424.426 84.5297 424.91 84.625 425.468 84.625ZM434.876 74.857V81.963C434.876 82.8063 435.071 83.459 435.459 83.921C435.848 84.383 436.435 84.614 437.219 84.614C437.791 84.614 438.33 84.4783 438.836 84.207C439.342 83.9357 439.808 83.558 440.233 83.074V74.857H442.191V86H441.025C440.747 86 440.571 85.8643 440.497 85.593L440.343 84.394C439.859 84.9293 439.317 85.362 438.715 85.692C438.114 86.0147 437.425 86.176 436.647 86.176C436.039 86.176 435.5 86.077 435.03 85.879C434.568 85.6737 434.18 85.3877 433.864 85.021C433.549 84.6543 433.311 84.2107 433.149 83.69C432.995 83.1693 432.918 82.5937 432.918 81.963V74.857H434.876ZM444.769 84.79C444.769 84.5993 444.802 84.4197 444.868 84.251C444.941 84.0823 445.036 83.9357 445.154 83.811C445.278 83.6863 445.425 83.5873 445.594 83.514C445.762 83.4407 445.942 83.404 446.133 83.404C446.323 83.404 446.503 83.4407 446.672 83.514C446.84 83.5873 446.987 83.6863 447.112 83.811C447.236 83.9357 447.332 84.0823 447.398 84.251C447.471 84.4197 447.508 84.5993 447.508 84.79C447.508 84.988 447.471 85.1713 447.398 85.34C447.332 85.5013 447.236 85.6443 447.112 85.769C446.987 85.8937 446.84 85.989 446.672 86.055C446.503 86.1283 446.323 86.165 446.133 86.165C445.942 86.165 445.762 86.1283 445.594 86.055C445.425 85.989 445.278 85.8937 445.154 85.769C445.036 85.6443 444.941 85.5013 444.868 85.34C444.802 85.1713 444.769 84.988 444.769 84.79Z" fill="black"/>
</svg>
