<svg width="153" height="47" viewBox="0 0 153 47" fill="none" xmlns="http://www.w3.org/2000/svg">
<path d="M42.6206 10.5867C43.075 10.5867 43.3428 10.852 43.3428 11.3023V45.7322C43.3428 46.1825 43.075 46.4478 42.6206 46.4478H37.9138C37.4188 46.4478 37.1916 46.1825 37.1916 45.7322V11.3023C37.1916 10.852 37.4188 10.5867 37.9138 10.5867H42.6206Z" fill="white"/>
<path d="M57.9095 17.0433C57.9095 12.83 60.1736 10.5867 64.426 10.5867H69.4898C73.7421 10.5867 76.0062 12.83 76.0062 17.0433V39.9912C76.0062 44.2045 73.7421 46.4478 69.4898 46.4478H64.426C60.1736 46.4478 57.9095 44.2045 57.9095 39.9912V17.0433ZM68.3618 40.6666C69.5385 40.6666 70.1715 40.0877 70.1715 38.8736V18.1609C70.1715 16.995 69.5385 16.3679 68.3618 16.3679H65.7406C64.5639 16.3679 63.9309 16.995 63.9309 18.1609V38.8736C63.9309 40.0877 64.5639 40.6666 65.7406 40.6666H68.3618Z" fill="white"/>
<path d="M118.716 10.5867C119.3 10.5867 119.617 10.9485 119.576 11.5274L115.689 45.5955C115.64 46.1745 115.324 46.4478 114.74 46.4478H110.309C109.765 46.4478 109.449 46.1825 109.311 45.6438L104.604 25.3814L99.8565 45.684C99.7186 46.1745 99.4021 46.4478 98.8584 46.4478H94.3383C93.754 46.4478 93.4294 46.1825 93.3888 45.5955L89.6802 11.5274C89.6315 10.9485 89.948 10.5867 90.5404 10.5867H94.8414C95.3851 10.5867 95.7503 10.9003 95.7909 11.439L97.5519 32.417H97.7791L102.251 11.3988C102.388 10.8601 102.705 10.5947 103.249 10.5947H105.967C106.511 10.5947 106.827 10.8601 106.965 11.3988L111.396 32.425H111.623L113.482 11.447C113.531 10.9083 113.888 10.5947 114.431 10.5947H118.716V10.5867Z" fill="white"/>
<path d="M147.541 46.4478C147.135 46.4478 146.908 46.2227 146.819 45.8207L145.553 39.2756H137.503L136.285 45.8207C136.196 46.2227 135.969 46.4478 135.563 46.4478H130.718C130.223 46.4478 129.996 46.1825 130.134 45.684L137.641 11.2138C137.73 10.7636 138.006 10.5867 138.411 10.5867H144.701C145.106 10.5867 145.382 10.7636 145.472 11.2138L152.978 45.684C153.067 46.1745 152.889 46.4478 152.345 46.4478H147.541ZM141.52 18.4343L138.622 34.0814H144.417L141.52 18.4343Z" fill="white"/>
<path d="M23.9721 46.4479H22.3328V29.3294C22.3328 23.7492 17.691 19.2062 11.986 19.2062C6.2811 19.2062 1.63925 23.7492 1.63925 29.3294V46.4479H0V29.3294C0 22.8486 5.38032 17.582 11.986 17.582C18.5917 17.582 23.9721 22.8486 23.9721 29.3294V46.4479Z" fill="white"/>
<path d="M17.553 46.448H15.9137V29.4179C15.9137 27.263 14.1446 25.5021 11.9617 25.5021C9.78683 25.5021 8.00962 27.255 8.00962 29.4179V46.448H6.37036V29.4179C6.37036 26.3625 8.87793 23.8779 11.9617 23.8779C15.0454 23.8779 17.553 26.3625 17.553 29.4179V46.448Z" fill="white"/>
<path d="M20.7585 46.4478H19.1192V29.466C19.1192 25.5422 15.8975 22.35 11.9373 22.35C7.97714 22.35 4.75543 25.5422 4.75543 29.466V46.4478H3.11618V29.466C3.11618 24.6497 7.07636 20.7258 11.9373 20.7258C16.7983 20.7258 20.7585 24.6497 20.7585 29.466V46.4478Z" fill="white"/>
<path d="M14.3476 46.4479H12.7083V29.45C12.7083 29.0158 12.3512 28.6701 11.9211 28.6701C11.4829 28.6701 11.134 29.0239 11.134 29.45V46.4479H9.49472V29.45C9.49472 28.1233 10.5821 27.0459 11.9211 27.0459C13.2601 27.0459 14.3476 28.1233 14.3476 29.45V46.4479Z" fill="white"/>
<path d="M11.9211 9.42871C10.5821 9.42871 9.49472 10.5062 9.49472 11.8329V16.4643C10.0303 16.3517 10.574 16.2793 11.134 16.2391V11.8329C11.134 11.3987 11.491 11.0529 11.9211 11.0529C12.3594 11.0529 12.7083 11.4067 12.7083 11.8329V16.2311C13.2683 16.2632 13.812 16.3356 14.3476 16.4401V11.8329C14.3476 10.5062 13.2601 9.42871 11.9211 9.42871Z" fill="white"/>
<path d="M12.7407 6.27693V3.63156H13.9986V2.00735H12.7407V0.552002H11.1015V2.00735H9.84365V3.63156H11.1015V6.27693C8.40727 6.67092 6.3298 8.97857 6.3298 11.7526V17.5981C6.85729 17.3247 7.401 17.0835 7.96906 16.8825V11.7526C7.96906 9.5977 9.73815 7.83681 11.9211 7.83681C14.096 7.83681 15.8732 9.58966 15.8732 11.7526V16.8423C16.4412 17.0353 16.985 17.2604 17.5124 17.5338V11.7606C17.5043 8.97857 15.435 6.67092 12.7407 6.27693Z" fill="white"/>
</svg>

